<svg xmlns="http://www.w3.org/2000/svg" xmlns:xlink="http://www.w3.org/1999/xlink" viewBox="0 0 918.1 206.5"><defs><style>.cls-1{fill:none;}.cls-2{opacity:0.4;}.cls-3{clip-path:url(#clip-path);}.cls-4{fill:#fff;}.cls-5{clip-path:url(#clip-path-2);}.cls-6{clip-path:url(#clip-path-3);}.cls-7{clip-path:url(#clip-path-4);}</style><clipPath id="clip-path"><rect class="cls-1" x="825.3" width="32" height="32.1"/></clipPath><clipPath id="clip-path-2"><rect class="cls-1" x="886.1" width="32" height="32.1"/></clipPath><clipPath id="clip-path-3"><rect class="cls-1" x="825.3" y="62" width="32" height="32.1"/></clipPath><clipPath id="clip-path-4"><rect class="cls-1" x="886.1" y="62" width="32" height="32.1"/></clipPath></defs><g id="Capa_2" data-name="Capa 2"><g id="Capa_1-2" data-name="Capa 1"><g class="cls-2"><g class="cls-3"><polygon class="cls-4" points="835 0 825.3 9.7 847.6 32.1 857.3 22.4 835 0"/></g></g><g class="cls-2"><g class="cls-5"><polygon class="cls-4" points="918.1 9.7 908.4 0 886.1 22.4 895.8 32.1 918.1 9.7"/></g></g><g class="cls-2"><g class="cls-6"><polygon class="cls-4" points="825.3 84.4 835 94.1 857.3 71.7 847.6 62 825.3 84.4"/></g></g><g class="cls-2"><g class="cls-7"><polygon class="cls-4" points="886.1 71.8 908.4 94.1 918.1 84.4 895.8 62 886.1 71.8"/></g></g><path class="cls-4" d="M9.3,164q-6.3-3.9-7.8-9.9A62.85,62.85,0,0,1,0,139V34.9H24.4v99.2a53.3,53.3,0,0,0,.6,9.4,7.26,7.26,0,0,0,3.5,4.9c1.9,1.2,5,1.9,9.3,1.9a30.16,30.16,0,0,0,4.9-.4v17A132,132,0,0,1,28.6,168c-8.7,0-15.2-1.3-19.3-4"/><path class="cls-4" d="M73.3,161.9a40.92,40.92,0,0,1-14.9-17.8,59.14,59.14,0,0,1-4.9-23.7,56.83,56.83,0,0,1,4.9-23.7A41.19,41.19,0,0,1,73.3,78.8q10-6.9,24.9-6.9c13.1,0,23.5,4.2,31.2,12.5S141,104.8,141,120.6v6.7H77.1v1.4a20.47,20.47,0,0,0,5.8,14.6,19.39,19.39,0,0,0,14.7,6.1,20.88,20.88,0,0,0,11.7-3.2,17.74,17.74,0,0,0,6.9-8.6h24a42.31,42.31,0,0,1-14.5,22.5c-7.2,5.8-16.4,8.7-27.5,8.7-10-.1-18.2-2.3-24.9-6.9m44.1-50.6c-.2-7.4-2.1-12.9-5.6-16.4s-8.2-5.3-14-5.3c-6.1,0-10.9,1.9-14.5,5.8s-5.4,9.2-5.6,15.9Z"/><path class="cls-4" d="M190.1,205.7a56.74,56.74,0,0,1-6.7-2V184.1a41.06,41.06,0,0,0,5.7,1.1,50.91,50.91,0,0,0,7.7.6c8.2,0,14-2.3,17.4-7s5-10.4,5-17.4V149h-1.4a31.6,31.6,0,0,1-9.9,11.8c-4.7,3.6-10.9,5.5-18.7,5.5a33.18,33.18,0,0,1-19.6-5.9,37,37,0,0,1-12.7-16.6,64.66,64.66,0,0,1-4.4-24.6c0-9.5,1.5-17.9,4.4-25a36.52,36.52,0,0,1,12.8-16.6,33.71,33.71,0,0,1,19.7-5.9q11.85,0,18.9,5.7c4.7,3.8,7.9,7.9,9.5,12.1h1.4V74h24.5v87.4a62.5,62.5,0,0,1-3.3,19.2c-2.2,6.8-6.5,12.8-13,18s-15.7,7.9-27.5,7.9a48.5,48.5,0,0,1-9.8-.8M214,138.3a35.46,35.46,0,0,0,5.3-19.4,35,35,0,0,0-5.2-19.2c-3.5-5.5-8.7-8.2-15.6-8.2s-12.2,2.7-15.7,8.2a35,35,0,0,0-5.3,19.2c0,7.4,1.7,13.9,5.2,19.4s8.7,8.3,15.8,8.3c6.8,0,11.9-2.7,15.5-8.3"/><path class="cls-4" d="M380.4,164q-6.3-3.9-7.8-9.9a62.85,62.85,0,0,1-1.5-15.1V34.9h24.4v99.2a53.3,53.3,0,0,0,.6,9.4,7.26,7.26,0,0,0,3.5,4.9c1.9,1.2,5,1.9,9.3,1.9a30.16,30.16,0,0,0,4.9-.4v17a132,132,0,0,1-14.1,1.1c-8.7,0-15.2-1.3-19.3-4"/><rect class="cls-4" x="430.2" y="74.1" width="24.4" height="93.2"/><path class="cls-4" d="M489.1,164.3a32,32,0,0,1-13-11.6,28.74,28.74,0,0,1-4.4-15.1v-1.1h23.8v1.1a11.61,11.61,0,0,0,3.7,8.5c2.5,2.5,6.1,3.7,10.8,3.7a15.2,15.2,0,0,0,9.4-2.7,8.85,8.85,0,0,0,3.6-7.5,8.07,8.07,0,0,0-3.2-6.7,17.59,17.59,0,0,0-7.9-3.2l-10.6-2.1a45.85,45.85,0,0,1-18.9-8.3c-5.6-4.2-8.5-10.6-8.5-19.2,0-8.8,3.2-15.7,9.7-20.7s14.8-7.5,24.9-7.5A42.47,42.47,0,0,1,527.7,76a31.13,31.13,0,0,1,12.4,10.7,26.13,26.13,0,0,1,4.2,14.2v.7H520.5v-.5a12.13,12.13,0,0,0-3.2-7.9c-2.1-2.4-5.4-3.6-9.7-3.6-3.7,0-6.6.9-8.8,2.8a9.45,9.45,0,0,0-3.4,7.4,7.74,7.74,0,0,0,3.4,6.7,21,21,0,0,0,8.6,3.4l11.7,2.3a43.89,43.89,0,0,1,19.1,8.9q7.8,6.45,7.8,18.3a25.72,25.72,0,0,1-4.8,15.5A30.4,30.4,0,0,1,528,165.2a46.74,46.74,0,0,1-18.6,3.6c-7.8-.1-14.6-1.6-20.3-4.5"/><path class="cls-4" d="M594.4,93.2v41.5a51.49,51.49,0,0,0,.6,9.2,7.48,7.48,0,0,0,3.4,4.8c1.9,1.2,4.9,1.8,9.2,1.8a39.81,39.81,0,0,0,7.6-.7v17c-1.3.2-3.6.5-7,.9a82.5,82.5,0,0,1-9.8.5c-8.6,0-15-1.3-19.2-3.8s-6.8-5.7-7.9-9.5a54.39,54.39,0,0,1-1.6-14.7v-47H554.2V74.1h15.9V43.7h24.4V74.1h20.8V93.2Z"/><path class="cls-4" d="M637.2,155.5c-6.5-8.8-9.7-20.5-9.7-35,0-14.7,3.3-26.5,9.8-35.4S653,71.8,664.8,71.8c7.9,0,14.1,1.8,18.5,5.4a32.85,32.85,0,0,1,9.5,11.4h1.4V74.1h24.5v93.2H694.2V151.2h-1.4a34.55,34.55,0,0,1-9.9,12c-4.5,3.7-10.7,5.5-18.7,5.5q-17.4,0-27-13.2m51.7-15c3.5-5.6,5.3-12.4,5.3-20.3s-1.7-14.6-5.2-20.1-8.7-8.3-15.8-8.3-12.3,2.8-15.7,8.3-5.1,12.2-5.1,20.1,1.7,14.8,5.1,20.4,8.6,8.4,15.7,8.4c6.9-.1,12.2-2.9,15.7-8.5"/><path class="cls-4" d="M269.6,155.5c-6.5-8.8-9.7-20.5-9.7-35,0-14.7,3.3-26.5,9.8-35.4s15.7-13.3,27.5-13.3c7.9,0,14.1,1.8,18.5,5.4a32.85,32.85,0,0,1,9.5,11.4h1.4V74.1h24.5v93.2H326.6V151.2h-1.4a34.55,34.55,0,0,1-9.9,12c-4.5,3.7-10.7,5.5-18.7,5.5q-17.25,0-27-13.2m51.7-15c3.5-5.6,5.3-12.4,5.3-20.3s-1.7-14.6-5.2-20.1-8.7-8.3-15.8-8.3-12.3,2.8-15.7,8.3-5.1,12.2-5.1,20.1,1.7,14.8,5.1,20.4,8.6,8.4,15.7,8.4c6.9-.1,12.2-2.9,15.7-8.5"/><path class="cls-4" d="M751.6,164.3a32,32,0,0,1-13-11.6,28.74,28.74,0,0,1-4.4-15.1v-1.1h23.9v1.1a11.61,11.61,0,0,0,3.7,8.5c2.5,2.5,6.1,3.7,10.8,3.7a15.2,15.2,0,0,0,9.4-2.7,8.85,8.85,0,0,0,3.6-7.5,8.07,8.07,0,0,0-3.2-6.7,17.59,17.59,0,0,0-7.9-3.2l-10.6-2.1a45.85,45.85,0,0,1-18.9-8.3c-5.6-4.2-8.5-10.6-8.5-19.2,0-8.8,3.2-15.7,9.7-20.7s14.8-7.5,24.9-7.5A42.47,42.47,0,0,1,790.3,76a31.13,31.13,0,0,1,12.4,10.7,26.13,26.13,0,0,1,4.2,14.2v.7H783.1v-.5a12.13,12.13,0,0,0-3.2-7.9c-2.1-2.4-5.4-3.6-9.7-3.6-3.7,0-6.6.9-8.8,2.8a9.45,9.45,0,0,0-3.4,7.4,7.74,7.74,0,0,0,3.4,6.7,21,21,0,0,0,8.6,3.4l11.7,2.3a43.89,43.89,0,0,1,19.1,8.9q7.8,6.45,7.8,18.3a25.72,25.72,0,0,1-4.8,15.5,30.4,30.4,0,0,1-13.2,10.3,49.13,49.13,0,0,1-39-.9"/><rect class="cls-4" x="859.5" y="34.9" width="24.4" height="24.4"/></g></g></svg>